<svg width="34" height="34" viewBox="0 0 34 34" fill="none" xmlns="http://www.w3.org/2000/svg">
<circle cx="17" cy="17" r="17" fill="url(#paint0_linear)"/>
<path d="M21.0325 8H12.9672C10.2283 8 8 10.2284 8 12.9673V21.0326C8 23.7716 10.2283 25.9999 12.9672 25.9999H21.0325C23.7716 25.9999 25.9999 23.7715 25.9999 21.0326V12.9673C26 10.2284 23.7716 8 21.0325 8ZM24.403 21.0326C24.403 22.891 22.891 24.4029 21.0326 24.4029H12.9672C11.1089 24.403 9.59704 22.891 9.59704 21.0326V12.9673C9.59704 11.109 11.1089 9.59704 12.9672 9.59704H21.0325C22.8909 9.59704 24.4029 11.109 24.4029 12.9673V21.0326H24.403Z" fill="white"/>
<path d="M16.9999 12.3623C14.4424 12.3623 12.3618 14.4429 12.3618 17.0004C12.3618 19.5578 14.4424 21.6383 16.9999 21.6383C19.5574 21.6383 21.6381 19.5578 21.6381 17.0004C21.6381 14.4429 19.5574 12.3623 16.9999 12.3623ZM16.9999 20.0412C15.3232 20.0412 13.9589 18.6771 13.9589 17.0003C13.9589 15.3234 15.323 13.9592 16.9999 13.9592C18.6768 13.9592 20.041 15.3234 20.041 17.0003C20.041 18.6771 18.6767 20.0412 16.9999 20.0412Z" fill="white"/>
<path d="M21.8327 11.0078C21.525 11.0078 21.2228 11.1324 21.0055 11.3506C20.7871 11.5678 20.6616 11.8702 20.6616 12.179C20.6616 12.4868 20.7872 12.789 21.0055 13.0073C21.2226 13.2245 21.525 13.3501 21.8327 13.3501C22.1415 13.3501 22.4428 13.2245 22.661 13.0073C22.8793 12.789 23.0039 12.4867 23.0039 12.179C23.0039 11.8702 22.8793 11.5678 22.661 11.3506C22.4438 11.1324 22.1415 11.0078 21.8327 11.0078Z" fill="white"/>
<defs>
<linearGradient id="paint0_linear" x1="29.5" y1="-5.5" x2="10" y2="42" gradientUnits="userSpaceOnUse">
<stop stop-color="#4761CB"/>
<stop offset="0.505208" stop-color="#C934AD"/>
<stop offset="0.713542" stop-color="#EF4A60"/>
<stop offset="1" stop-color="#FFB94E"/>
</linearGradient>
</defs>
</svg>
