<svg width="34" height="34" viewBox="0 0 34 34" fill="none" xmlns="http://www.w3.org/2000/svg">
<circle cx="17" cy="17" r="17" fill="url(#paint0_linear)"/>
<path d="M24.9099 21.4099C24.8893 21.3655 24.8701 21.3287 24.8523 21.2993C24.5573 20.768 23.9937 20.116 23.1617 19.343L23.1441 19.3253L23.1353 19.3166L23.1264 19.3077H23.1175C22.7399 18.9477 22.5008 18.7057 22.4006 18.5818C22.2174 18.3458 22.1764 18.1068 22.2765 17.8647C22.3473 17.6818 22.613 17.2955 23.0731 16.7054C23.3152 16.3926 23.5068 16.1419 23.6484 15.953C24.6693 14.5958 25.1119 13.7285 24.9761 13.3508L24.9234 13.2625C24.888 13.2094 24.7965 13.1608 24.6492 13.1165C24.5015 13.0722 24.3127 13.0649 24.0825 13.0944L21.5334 13.112C21.4921 13.0974 21.4332 13.0987 21.3563 13.1165C21.2796 13.1342 21.2412 13.1431 21.2412 13.1431L21.1969 13.1653L21.1617 13.1919C21.1321 13.2095 21.0997 13.2405 21.0642 13.2847C21.029 13.3289 20.9995 13.3806 20.976 13.4396C20.6984 14.1536 20.3829 14.8175 20.0288 15.4311C19.8104 15.797 19.6099 16.1141 19.4268 16.3826C19.2439 16.6511 19.0905 16.8488 18.9666 16.9756C18.8426 17.1025 18.7307 17.2041 18.6302 17.2809C18.5299 17.3577 18.4533 17.3902 18.4002 17.3783C18.347 17.3664 18.297 17.3547 18.2496 17.3429C18.167 17.2897 18.1006 17.2175 18.0505 17.126C18.0003 17.0346 17.9664 16.9195 17.9487 16.7808C17.9311 16.642 17.9207 16.5227 17.9177 16.4223C17.9149 16.3221 17.9162 16.1803 17.9222 15.9974C17.9283 15.8144 17.9311 15.6906 17.9311 15.6257C17.9311 15.4014 17.9355 15.158 17.9442 14.8954C17.9532 14.6328 17.9604 14.4248 17.9664 14.2715C17.9725 14.1181 17.9752 13.9558 17.9752 13.7846C17.9752 13.6135 17.9648 13.4793 17.9442 13.3819C17.9239 13.2846 17.8927 13.1902 17.8515 13.0986C17.8102 13.0072 17.7496 12.9364 17.6701 12.8862C17.5905 12.836 17.4914 12.7962 17.3736 12.7667C17.0608 12.6959 16.6625 12.6576 16.1786 12.6517C15.0811 12.6399 14.3759 12.7107 14.0631 12.8642C13.9392 12.929 13.8271 13.0176 13.7268 13.1296C13.6206 13.2595 13.6058 13.3303 13.6825 13.342C14.0366 13.395 14.2873 13.5219 14.4348 13.7225L14.488 13.8288C14.5293 13.9055 14.5706 14.0413 14.6119 14.236C14.6532 14.4307 14.6798 14.6461 14.6916 14.882C14.721 15.3128 14.721 15.6816 14.6916 15.9884C14.662 16.2953 14.6341 16.5343 14.6075 16.7054C14.5808 16.8765 14.541 17.0152 14.488 17.1214C14.4348 17.2276 14.3994 17.2925 14.3817 17.3161C14.364 17.3396 14.3492 17.3545 14.3375 17.3603C14.2608 17.3897 14.181 17.4047 14.0985 17.4047C14.0158 17.4047 13.9155 17.3633 13.7976 17.2807C13.6796 17.198 13.5572 17.0845 13.4303 16.9399C13.3034 16.7953 13.1603 16.5932 13.0009 16.3336C12.8417 16.074 12.6764 15.7671 12.5053 15.4131L12.3637 15.1563C12.2752 14.9912 12.1543 14.7506 12.0009 14.435C11.8473 14.1193 11.7116 13.8138 11.5937 13.5188C11.5465 13.3949 11.4757 13.3005 11.3813 13.2356L11.337 13.209C11.3075 13.1854 11.2603 13.1604 11.1954 13.1338C11.1305 13.1071 11.0627 13.088 10.9918 13.0763L8.56659 13.0939C8.31876 13.0939 8.15061 13.15 8.06207 13.2622L8.02663 13.3152C8.00893 13.3448 8 13.3919 8 13.4569C8 13.5218 8.0177 13.6015 8.05314 13.6958C8.40718 14.5279 8.79219 15.3304 9.20817 16.1034C9.62415 16.8764 9.98562 17.499 10.2924 17.9708C10.5992 18.4429 10.912 18.8885 11.2306 19.3074C11.5493 19.7264 11.7602 19.9949 11.8634 20.1128C11.9668 20.231 12.0479 20.3194 12.1069 20.3783L12.3282 20.5907C12.4698 20.7324 12.6778 20.902 12.9522 21.0997C13.2267 21.2974 13.5305 21.4921 13.8639 21.684C14.1974 21.8757 14.5853 22.032 15.0279 22.153C15.4704 22.274 15.9012 22.3226 16.3202 22.2992H17.3381C17.5445 22.2814 17.7009 22.2164 17.8072 22.1044L17.8424 22.06C17.8661 22.0248 17.8883 21.9701 17.9087 21.8965C17.9295 21.8227 17.9397 21.7415 17.9397 21.6531C17.9337 21.3994 17.953 21.1708 17.9972 20.9672C18.0413 20.7637 18.0916 20.6103 18.1478 20.5069C18.204 20.4037 18.2674 20.3166 18.338 20.246C18.4088 20.1752 18.4592 20.1323 18.4888 20.1176C18.5181 20.1027 18.5416 20.0926 18.5593 20.0866C18.7009 20.0394 18.8676 20.0851 19.0596 20.2239C19.2514 20.3626 19.4313 20.5338 19.5995 20.7373C19.7677 20.941 19.9698 21.1695 20.2058 21.4232C20.4419 21.6769 20.6484 21.8656 20.8254 21.9897L21.0023 22.0959C21.1205 22.1668 21.2739 22.2317 21.4628 22.2907C21.6513 22.3497 21.8165 22.3644 21.9583 22.3349L24.2241 22.2996C24.4482 22.2996 24.6226 22.2625 24.7463 22.1888C24.8703 22.1151 24.9439 22.0338 24.9676 21.9455C24.9913 21.857 24.9926 21.7566 24.9721 21.6444C24.9511 21.5324 24.9305 21.4541 24.9099 21.4099Z" fill="white"/>
<defs>
<linearGradient id="paint0_linear" x1="17" y1="0" x2="17" y2="34" gradientUnits="userSpaceOnUse">
<stop stop-color="#4A76A8"/>
<stop offset="1" stop-color="#5485BD"/>
</linearGradient>
</defs>
</svg>
