<svg width="34" height="34" viewBox="0 0 34 34" fill="none" xmlns="http://www.w3.org/2000/svg">
<circle cx="17" cy="17" r="17" fill="url(#paint0_linear)"/>
<path d="M25.6177 12.8735C25.4109 12.136 24.8004 11.5553 24.0264 11.3582C22.6241 11 16.9982 11 16.9982 11C16.9982 11 11.3734 11 9.97002 11.3582C9.19603 11.5553 8.58662 12.136 8.37978 12.8735C8.00391 14.2109 8.00391 17 8.00391 17C8.00391 17 8.00391 19.7891 8.37978 21.1254C8.58662 21.8629 9.19603 22.4447 9.97002 22.6418C11.3734 23 16.9982 23 16.9982 23C16.9982 23 22.6241 23 24.0264 22.6418C24.8004 22.4447 25.4109 21.8629 25.6177 21.1254C25.9936 19.7891 25.9936 17 25.9936 17C25.9936 17 25.9936 14.2109 25.6177 12.8735Z" fill="#E32124"/>
<path d="M15.201 19.5709L19.8739 17.0001L15.201 14.4282V19.5709Z" fill="#FEFEFE"/>
<defs>
<linearGradient id="paint0_linear" x1="30" y1="-3.5" x2="5.5" y2="34" gradientUnits="userSpaceOnUse">
<stop stop-color="#C80707"/>
<stop offset="1" stop-color="#E10B0B"/>
</linearGradient>
</defs>
</svg>
